<?xml version="1.0" encoding="UTF-8"?>
<svg id="Layer_1" xmlns="http://www.w3.org/2000/svg" version="1.1" viewBox="0 0 500 200">
  <!-- Generator: Adobe Illustrator 29.0.1, SVG Export Plug-In . SVG Version: 2.1.0 Build 192)  -->
  <defs>
    <style>
      .st0 {
        fill: red;
      }
    </style>
  </defs>
  <path class="st0" d="M271.04,153.98l-7.18-.47-7.19-.33-7.19-.26-7.18-.4-7.25.59-4.41-.73.69.09,7.25-.66,7.11.82,7.26-1.04,7.14.08,7.11,1.62,7.26-1.14,7.12.6,7.2-.18,7.17.25,7.19-.98,7.15.27,7.18-.67,7.15-.33,7.17-.26,7.16-.47,7.15-.54,7.19.29,7.17-.66,7.18-.15,7.13-1.06,7.07-1.52,7.12-.65,7.17-.39,7.08-1.37,7-1.69,7.25.24,6.85-2.44,7.08-.53,6.94-1.68,6.98-1.41,6.88-1.96,6.28-3.69,6.61-2.46,6.12-3.66,5.57-4.96-.49-7.43-4.63-5.81-5.75-4.75-5.87-4.73-7.22-2.51-6.5-3.6-6.88-2.96-6.64-3.46-7.18-2.27-6.94-2.76-7.17-2.19-6.97-2.67-6.66-3-6.97-2.13-7.06-1.77-7.29-.97-7.02-1.74-6.93-2.13-4.87-2.04,6.42,1.69,7.09,1.77,7.2,1.43,6.97,2.16,7.16,1.64,6.95,2.25,7.13,1.76,6.71,2.91,7.08,1.97,7.07,1.99,6.48,3.39,6.78,2.78,6.73,2.87,6.66,3.03,6.5,3.35,6.53,3.44,5.38,5.02,5.48,4.91,1.01,7.11-2.24,6.54-5.91,4.21-6.34,3.59-6.64,3.1-7.12,1.68-6.93,2.48-7.19,1.33-7.07,2.06-7.28.8-7.19,1.54-7.17,1.61-7.22,1.3-7.41-.47-7.24,1.53-7.27.77-7.32.25-7.15.88-7.16.61-7.13,1.43-7.14.88-7.22-1.1-7.19,1.68-7.17-.96-7.21,1.17-7.16-.25-7.21.87-7.17-.09-7.2.05-7.19.13-7.19-.25ZM213.55,151.63l-7.21-.32-7.13-.92-7.23-.14-7.21-.23-7.1-1.09-7.04-1.72-7.39.77-7-1.54-7.18-1.78-7.41-.3-7.3-.78-7.33-.75-7.08-2.05-7.39-.65-7.21-1.4-7.12-1.86-7.03-2.21-7.38-.93-6.99-2.2-6.76-2.93-7.12-1.93-6.75-2.8-7.18-2.12-6.18-4.02-5.85-4.89-3.14-6.84-.62-7.1,2.69-6.58,5.17-5.14,6.11-3.34,6.02-3.85,6.91-1.53,6.75-2.13,6.48-3.33,6.88-1.6,6.92-1.66,7.15-.23,7-1.31,7.04-.84,7.08-.5,6.99-1.57,7.07-.38,7.09-.49,7.04-1.12,4.89-.41-6.44,1.62-7.34.77-7.46-.19-7.31,1.65-7.38.5-7.25,1.84-7.34.82-6.67,2.08-6.71,1.52-7.01.16-6.4,3.18-6.8,1.11-6.37,2.82-6.83,1.5-6.04,3.64-5.48,4.38-4.15,5.86-.45,7.36,3.05,6.73,5.33,4.99,6.45,3.24,5.98,3.82,6.83,2.22,6.63,2.48,6.54,2.86,6.81,2.18,7.2.78,6.48,3.23,7.4-.03,6.8,1.99,7.06,1.12,6.96,1.47,7,1.35,7.01,1.29,7.03,1.2,7.19.14,6.96,1.83,7.26.09,7.14.57,7.13.69,7.13.8,7.07,1.4,7.23.05,7.11.82,7.16.56,7.18.23,3.25.41-6.81.7-7.1-1.04ZM157.72,61.4l7.09.48,7.09-1.07,7.17-.1,7.04-.21v.05s-7.13,1.14-7.13,1.14l-7.4-.27-7.41.65-7.39.48-5.78.08,6.71-1.22ZM348.54,59.45l-4.26-1.49,5.76,1.05,4.01,1.12-5.52-.69ZM327.26,54.8l-4.75-1.38,6.09.89,4.31,1.05-5.66-.56ZM312.98,52.21l-6.97-2.02-7.25-.86-3.41-.87,4.57.19,7.11,1.64,7.08,1.92,1.39.2-2.52-.2ZM284.33,47.45l-3.42-.84,4.56-.22,4,1.1-5.14-.05Z"/>
</svg>